<svg xmlns="http://www.w3.org/2000/svg" viewBox="0 0 274.52 137.59"><defs><style>.cls-1{fill:#eaeaea;}</style></defs><title>cabeloApagado</title><g id="Camada_2" data-name="Camada 2"><g id="Camada_2-2" data-name="Camada 2"><path class="cls-1" d="M18.7,56.51a114.8,114.8,0,0,1-9-17.14A73.68,73.68,0,0,1,3.85,8.78c.53.37.5.92.64,1.37A105.23,105.23,0,0,0,31.21,54.28c1.12,1.1,1.1,1.08,2.13-.16,21.35-25.94,48.14-43.24,81-50.74A132.56,132.56,0,0,1,161,1.08q49.9,6.36,83.49,43.86c13.24,14.83,22.6,32,29.08,50.69.35,1,.66,2.05,1,3.07,0,.07,0,.15-.07.37a35.22,35.22,0,0,0-6.58-3.3,20.36,20.36,0,0,0-7.41-1.35c5.92,13.79,9.06,27.91,6.56,43.17-.87-1.92-1.59-3.59-2.38-5.24-4.07-8.56-8.94-16.6-15.8-23.28a41,41,0,0,0-20-11.14c-.23-.05-.47-.08-1-.16,1.17,1.37,2.2,2.54,3.21,3.74,5.23,6.24,9.88,12.86,12.9,20.49A36.45,36.45,0,0,1,246.6,135a9.22,9.22,0,0,1-.23,2.58l-1.23-1.38c-11.51-12.87-24.15-24.46-38.86-33.63a113.09,113.09,0,0,0-39-15.63,101.46,101.46,0,0,0-27.34-1.38,124.22,124.22,0,0,0-39.21,10.28,1.61,1.61,0,0,1-2-.26Q75.11,75.44,51.43,55.41c-.34-.28-.69-.54-1-.81a2.72,2.72,0,0,1-.5-.19,4.29,4.29,0,0,1,.19.5c6.16,7.14,12.35,14.27,18.49,21.43,5,5.86,10,11.72,14.73,17.85a13.56,13.56,0,0,1,2,3.21l-4.83-1.11a106.49,106.49,0,0,0-28.68-2.74c-16.51.8-31.29,6.21-44.1,16.77l-.75.61a4.56,4.56,0,0,1-.28-1.8C6.07,96.56,10,85.4,17.16,75.22a12.29,12.29,0,0,1,1.28-1.73c1.24-1.18,1.22-2.43.71-4-2.7-8.29-8.5-12.86-16.92-14.38C1.49,55,.75,54.89,0,54.77c1.27-2.83,4.71-4.35,8.1-3.63a20.57,20.57,0,0,1,7.51,3.6c.95.67,1.86,1.38,2.78,2.08C18.75,57,18.8,56.81,18.7,56.51Z"/></g></g></svg>