<svg xmlns="http://www.w3.org/2000/svg" viewBox="0 0 396.96 396.79"><defs><style>.cls-1{fill:#9d9d9d;}</style></defs><title>insta</title><g id="Camada_2" data-name="Camada 2"><g id="Camada_1-2" data-name="Camada 1"><path class="cls-1" d="M396.84,198.42h0q0-42.79,0-85.59a101.28,101.28,0,0,0-1.11-17.52c-6.9-39.85-30.49-66.79-66-84.11C312.34,2.75,293.57.23,274.54.14,224.41-.09,174.28,0,124.15,0a158.93,158.93,0,0,0-23.48,1.52C67.88,6.39,41.33,22.26,20.9,48,5.93,66.93.14,89.23.08,113-.06,170.87,0,228.73,0,286.6A100.93,100.93,0,0,0,3,310.71c6.59,26.87,22.48,47.37,44.26,63.61,21.43,16,46.15,22.14,72.42,22.28,51.73.29,103.46.15,155.19.19,23.5,0,45.81-5,66-17.2,35.42-21.39,55.36-52.35,55.93-94.37C397.16,256.29,396.84,227.36,396.84,198.42Zm-29.76,86.36c-.2,30.86-14.85,53.63-41.36,69.17-16.09,9.42-33.34,13.38-51.88,13.3-51.19-.21-102.38,0-153.57-.21a107.65,107.65,0,0,1-29.17-3.91,82.16,82.16,0,0,1-35.43-20.07C44.23,332,35.23,319.21,31.59,303.32a84.34,84.34,0,0,1-2-19q0-43.2,0-86.38h-.11c0-27.46.58-54.94-.14-82.38-.95-36.13,21.32-65.23,51.56-77.9a101,101,0,0,1,39.6-8.06c52,.07,104,0,156,.12,18.28.05,35.84,3.6,51.31,13.85,23.89,15.83,39.24,37.11,39.35,66.86C367.34,168.54,367.45,226.66,367.08,284.78Z"/><path class="cls-1" d="M283.24,91.53c.07-11.11,9.21-20.46,19.85-20.29,10.48.16,19.33,9.55,19.28,20.46,0,11.07-9.2,20.43-19.86,20.29C292,111.85,283.17,102.43,283.24,91.53Z"/><path class="cls-1" d="M199.39,96.56c-51.07-.39-93.37,40.63-93.78,90.95-.42,50.88,41.12,92.62,92.58,93,51.11.4,93.4-40.82,93.79-91.41S250.74,97,199.39,96.56Zm-.5,154.38c-35,0-63.68-28-63.71-62.42s28.52-62.38,63.67-62.39c34.83,0,63.52,28.06,63.53,62.17C262.4,222.81,233.93,250.9,198.89,250.94Z"/></g></g></svg>