<svg xmlns="http://www.w3.org/2000/svg" viewBox="0 0 498.45 210.9"><defs><style>.cls-1{fill:#fff;}</style></defs><title>logoVetorizadoSimplesCinza</title><g id="Camada_2" data-name="Camada 2"><g id="Camada_2-2" data-name="Camada 2"><path class="cls-1" d="M153.33,56.51a115.79,115.79,0,0,1-9-17.14,73.83,73.83,0,0,1-5.82-30.59c.53.37.5.92.64,1.37a105.23,105.23,0,0,0,26.72,44.13c1.12,1.1,1.1,1.08,2.13-.16,21.35-25.94,48.14-43.24,81-50.74a132.56,132.56,0,0,1,46.6-2.3q49.91,6.36,83.49,43.86c13.24,14.83,22.6,32,29.08,50.69.35,1,.66,2.05,1,3.07,0,.07,0,.15-.07.37a35.53,35.53,0,0,0-6.58-3.3,20.4,20.4,0,0,0-7.41-1.35c5.92,13.79,9.06,27.91,6.56,43.17-.87-1.92-1.59-3.59-2.38-5.24-4.07-8.56-8.94-16.6-15.8-23.28a41,41,0,0,0-20-11.14c-.23-.05-.47-.08-1-.16,1.17,1.37,2.2,2.54,3.21,3.74,5.23,6.24,9.88,12.86,12.9,20.49A36.45,36.45,0,0,1,381.23,135a9.22,9.22,0,0,1-.23,2.58l-1.23-1.38c-11.51-12.87-24.15-24.46-38.87-33.63a113,113,0,0,0-39-15.63,101.51,101.51,0,0,0-27.35-1.38,124.23,124.23,0,0,0-39.2,10.28,1.61,1.61,0,0,1-2-.26q-23.64-20.09-47.31-40.12c-.33-.28-.68-.54-1-.81a2.72,2.72,0,0,1-.5-.19c.08.16.12.33.19.5,6.16,7.14,12.35,14.27,18.49,21.43,5,5.86,10,11.72,14.73,17.85a13.56,13.56,0,0,1,2,3.21l-4.83-1.11a106.49,106.49,0,0,0-28.68-2.74c-16.51.8-31.29,6.21-44.1,16.77l-.75.61a4.56,4.56,0,0,1-.28-1.8c-.62-12.57,3.35-23.73,10.48-33.91a12.29,12.29,0,0,1,1.28-1.73c1.24-1.18,1.22-2.43.71-4-2.7-8.29-8.5-12.86-16.93-14.38-.73-.13-1.47-.23-2.22-.35,1.27-2.83,4.71-4.35,8.1-3.63a20.57,20.57,0,0,1,7.51,3.6c.94.67,1.86,1.38,2.78,2.08C153.38,57,153.43,56.81,153.33,56.51Z"/><path class="cls-1" d="M0,201.74V199.1c.35-8.95.62-17.9,1.07-26.85.81-16.34,1.2-32.69.87-49-.27-13.35-.63-26.7-1-40C.75,77,.43,70.92.12,64.81a1.69,1.69,0,0,1,1.62-2,6.71,6.71,0,0,1,1.06-.18,97,97,0,0,0,19.54-1.81,3.49,3.49,0,0,1,3.82,1.52q5.3,7.2,10.62,14.37,31.38,42.43,63.27,84.47a52.69,52.69,0,0,0,4.45,5.08,35,35,0,0,0,.58-6.65c.28-10.55.23-21.11-.07-31.67-.17-6.15-.33-12.31-.57-18.46-.55-14.27-1-28.54-1.09-42.82a23.15,23.15,0,0,1,.12-2.63,2.06,2.06,0,0,1,2.36-2.13c2.41,0,4.79.29,7.19.41A90.44,90.44,0,0,0,125,62a33.11,33.11,0,0,1,3.59-.1c1.63,0,2.36.76,2.33,2.38q-.16,10.08-.42,20.15c-.15,5.92-.42,11.83-.58,17.75-.3,11.15-.86,22.3-.87,33.46,0,11.75.16,23.51.25,35.27q.1,16.8.18,33.59c0,2.63-.76,3.3-3.39,3.3a30.28,30.28,0,0,1-5.38-.44c-3-.54-6-.05-8.95.26-1.48.15-3,.15-4.43.18a3.59,3.59,0,0,1-2.44-1.13,24.77,24.77,0,0,1-3.24-3.84q-34-45.42-68.29-90.6c-2-2.58-4.06-5-6.11-7.56-.23-.28-.42-.8-.89-.66s-.55.69-.58,1.11c-.1,1.63-.21,3.27-.19,4.91.13,14.75.19,29.51.46,44.27q.46,24.53.49,49.06c0,4.24-.26,4.54-4.43,4.4a55.08,55.08,0,0,1-5.74-.49c-3.06-.43-6.05.15-9.07.38-1.72.13-3.44.17-5.16.13A2,2,0,0,1,0,206.33Z"/><path class="cls-1" d="M151.6,162.71a27.55,27.55,0,0,0,2.31,7.64,38,38,0,0,0,38.2,22.91c14.85-1.36,25.53-9.07,31.94-22.56.46-1,.77-1.07,1.7-.68q5.63,2.39,11.32,4.58c.89.35,1.12.67.69,1.6-7.67,16.55-20.31,27.1-38.19,30.82A52.84,52.84,0,0,1,138,169.64C129.46,140,148.43,109,178.77,103.07a53,53,0,0,1,62.29,41.4,50.8,50.8,0,0,1,1.06,9.76c0,.68-.18.89-.87.89-4.59,0-9.19,0-13.79,0a6.85,6.85,0,0,1-.54-3.12,38.14,38.14,0,0,0-4.45-15c-6.25-11.06-15.69-17.61-28.21-19.47A36.45,36.45,0,0,0,170.35,122a38,38,0,0,0-17.17,20.49c-.17.45-.28.92-.42,1.38a41.06,41.06,0,0,0-1.7,10.49,34.42,34.42,0,0,0,.52,6.79A3.64,3.64,0,0,1,151.6,162.71Z"/><path class="cls-1" d="M254.44,173.18c.35-10.12.57-20.23.12-30.35s-1.44-19.92-4.41-29.54a5.13,5.13,0,0,1-.13-1.78,1.87,1.87,0,0,1,1.89-1.91,132.82,132.82,0,0,0,19.62-3.09,1.45,1.45,0,0,1,2,1,15.91,15.91,0,0,1,1,5.15,17.56,17.56,0,0,0,.82,4.94c.47,1.28.89,1.39,2,.67,2.76-1.77,5.49-3.58,8.3-5.27a36.51,36.51,0,0,1,22-5.18,18,18,0,0,1,4.38.62,2,2,0,0,1,1.59,2.19,149.55,149.55,0,0,1-1.44,20c-.3,2-1,2.63-3,2.58-3.32-.09-6.6-.64-9.91-.85a34.42,34.42,0,0,0-10.37.75c-6.71,1.63-9.73,5.07-10.58,11.89a106.35,106.35,0,0,0-.73,12c-.18,14.36.42,28.7.89,43.05.05,1.68.08,3.36.06,5,0,2-.86,2.82-2.87,2.82-6.31,0-12.63-.36-18.95-.25-1.64,0-2.4-.76-2.39-2.46,0-6.6.07-13.2.09-19.8C254.45,181.26,254.44,177.22,254.44,173.18Z"/><path class="cls-1" d="M457.26,208.4c-1.56,0-3.12.06-4.68,0s-2.19-.64-2.55-2.19a7.55,7.55,0,0,1-.26-1.89c0-4.42-.94-8.74-1.18-13.13-.15-2.66.23-3.27,2.9-3.53a22.57,22.57,0,0,1,3.94.28,34.19,34.19,0,0,0,14-1.57c5.18-1.8,7.77-5.41,7.69-10.47a8.68,8.68,0,0,0-2.36-5.63,20.63,20.63,0,0,0-5.85-4.52c-4.51-2.49-9-5-13.4-7.7-7.74-4.7-11.29-11.73-11.48-20.58-.34-15.05,8.15-26.33,23-30.75a53.58,53.58,0,0,1,14.77-2.16c2.1,0,2.79.42,3.44,2.42,1.18,3.65,2.25,7.33,3.14,11.06.28,1.2.59,2.4.85,3.61.39,1.82-.09,2.54-1.94,2.8-2.57.37-5.16.61-7.72,1s-5,.31-7.43,1.22c-3.25,1.24-5.68,3.21-6.22,6.92a6.53,6.53,0,0,0,1.39,5,24.13,24.13,0,0,0,7.41,6,128.34,128.34,0,0,1,12.94,8c6.93,5.21,10.42,12.25,10.79,20.86.34,7.83-1.52,15-6.64,21.09C486.3,201.1,479.2,205,471.05,207A49.59,49.59,0,0,1,457.26,208.4Z"/><path class="cls-1" d="M411.45,174.61c0-.56,0-1.11,0-1.67V73.85c0-3.26,1-4.29,4.29-4.29,4.43,0,8.87,0,13.31,0,2.59,0,3.81,1.23,3.81,3.83V207.14c0,2.55-1.2,3.75-3.72,3.75q-7,0-14,0c-2.46,0-3.62-1.2-3.65-3.69-.05-3.51.13-7-.09-10.54a2.71,2.71,0,0,1-.26-1.51c0-6.14,0-12.28,0-18.42A13.73,13.73,0,0,1,411.45,174.61Z"/><path class="cls-1" d="M411.45,174.61q0,10.8,0,21.58a2.6,2.6,0,0,1-.09.47,51.18,51.18,0,0,1-25.92,11c-17.84,2.11-33.22-3.21-45.64-16.22A50.62,50.62,0,0,1,325.46,153c.69-15.9,7.41-29,19.64-39.17.62-.52.95-.68,1.55.12,2.53,3.39,5.14,6.73,7.75,10.07.43.54.48.8-.12,1.3a38,38,0,0,0-14.19,28.49c-.91,18.2,12.63,35.33,30.55,38.84A38.52,38.52,0,0,0,411.45,174.61Z"/><path class="cls-1" d="M151.6,162.71a28.17,28.17,0,0,1-.86-8.52,36.14,36.14,0,0,1,1.73-10.46,7.92,7.92,0,0,1,3.39-.59c9.14-.89,18.26-1.86,27.4-2.76,8.3-.82,16.6-1.68,24.89-2.53,4.41-.45,8.81-.95,13.23-1.31a1.71,1.71,0,0,1,1.27.18A35.38,35.38,0,0,1,227,149.38a49.43,49.43,0,0,1,.49,5.7q-15.09,1.51-30.18,3c-9.86,1-19.72,2-29.58,3C162.34,161.67,157,162.18,151.6,162.71Z"/></g></g></svg>