<svg xmlns="http://www.w3.org/2000/svg" viewBox="0 0 501.33 311.26"><defs><style>.cls-1{fill:#373435;}.cls-2{fill:#1c6eed;}.cls-3{fill:#1c6fed;}</style></defs><title>logoVetorizadoI</title><g id="Camada_2" data-name="Camada 2"><g id="Camada_2-2" data-name="Camada 2"><path class="cls-1" d="M154.19,56.51a115.73,115.73,0,0,1-9-17.14,74,74,0,0,1-5.83-30.59c.53.37.51.92.65,1.37a105,105,0,0,0,26.72,44.13c1.11,1.1,1.1,1.08,2.12-.16,21.36-25.94,48.15-43.24,81-50.74a132.5,132.5,0,0,1,46.59-2.3q49.92,6.36,83.49,43.86c13.25,14.83,22.6,32,29.08,50.69.35,1,.66,2.05,1,3.07,0,.07,0,.15-.08.37a35.22,35.22,0,0,0-6.58-3.3,20.36,20.36,0,0,0-7.41-1.35c5.93,13.79,9.07,27.91,6.57,43.17-.87-1.92-1.6-3.59-2.38-5.24-4.08-8.56-8.94-16.6-15.8-23.28a41,41,0,0,0-20.05-11.14c-.23-.05-.47-.08-1-.16,1.18,1.37,2.21,2.54,3.21,3.74,5.24,6.24,9.88,12.86,12.9,20.49A36.25,36.25,0,0,1,382.1,135a9.61,9.61,0,0,1-.23,2.58l-1.23-1.38c-11.52-12.87-24.15-24.46-38.87-33.63a113,113,0,0,0-39-15.63,101.51,101.51,0,0,0-27.35-1.38,124.29,124.29,0,0,0-39.21,10.28,1.61,1.61,0,0,1-2-.26q-23.62-20.09-47.3-40.12c-.33-.28-.69-.54-1-.81a3.13,3.13,0,0,1-.51-.19,4.29,4.29,0,0,1,.19.5q9.26,10.71,18.49,21.43c5,5.86,10,11.72,14.73,17.85a13.24,13.24,0,0,1,2,3.21L216,96.29a106.38,106.38,0,0,0-28.67-2.74c-16.51.8-31.3,6.21-44.11,16.77l-.75.61a4.73,4.73,0,0,1-.27-1.8c-.62-12.57,3.35-23.73,10.48-33.91a10.9,10.9,0,0,1,1.28-1.73c1.23-1.18,1.21-2.43.71-4-2.71-8.29-8.51-12.86-16.93-14.38-.74-.13-1.48-.23-2.23-.35,1.27-2.83,4.71-4.35,8.11-3.63a20.6,20.6,0,0,1,7.5,3.6c1,.67,1.86,1.38,2.79,2.08C154.24,57,154.3,56.81,154.19,56.51Z"/><path class="cls-2" d="M.87,201.74V199.1c.35-8.95.62-17.9,1.06-26.85.82-16.34,1.21-32.69.87-49q-.41-20-1-40C1.62,77,1.3,70.92,1,64.81a1.7,1.7,0,0,1,1.63-2,6.35,6.35,0,0,1,1.06-.18,97.09,97.09,0,0,0,19.54-1.81A3.5,3.5,0,0,1,27,62.3q5.29,7.2,10.62,14.37Q69,119.1,100.91,161.14a54.24,54.24,0,0,0,4.46,5.08,35,35,0,0,0,.57-6.65c.29-10.55.23-21.11-.06-31.67-.18-6.15-.34-12.31-.57-18.46-.55-14.27-1-28.54-1.09-42.82a21,21,0,0,1,.12-2.63,2.06,2.06,0,0,1,2.36-2.13c2.4,0,4.79.29,7.18.41a90.4,90.4,0,0,0,12-.29,33.29,33.29,0,0,1,3.6-.1c1.63,0,2.35.76,2.33,2.38-.12,6.72-.24,13.44-.42,20.15-.16,5.92-.42,11.83-.58,17.75-.31,11.15-.86,22.3-.88,33.46,0,11.75.17,23.51.25,35.27q.12,16.8.19,33.59c0,2.63-.77,3.3-3.4,3.3a30.17,30.17,0,0,1-5.37-.44c-3-.54-6-.05-9,.26-1.48.15-3,.15-4.43.18a3.57,3.57,0,0,1-2.44-1.13,24.83,24.83,0,0,1-3.25-3.84q-34-45.42-68.28-90.6c-2-2.58-4.06-5-6.11-7.56-.24-.28-.43-.8-.89-.66s-.55.69-.58,1.11c-.11,1.63-.21,3.27-.2,4.91.14,14.75.19,29.51.47,44.27q.46,24.53.48,49.06c0,4.24-.26,4.54-4.43,4.4a55.12,55.12,0,0,1-5.73-.49c-3.06-.43-6.06.15-9.08.38-1.72.13-3.43.17-5.15.13a2,2,0,0,1-2.13-1.43Z"/><path class="cls-1" d="M152.46,162.71a27.55,27.55,0,0,0,2.31,7.64A38,38,0,0,0,193,193.26c14.85-1.36,25.53-9.07,31.94-22.56.45-1,.76-1.07,1.7-.68q5.63,2.39,11.31,4.58c.89.35,1.13.67.7,1.6C231,192.75,218.31,203.3,200.44,207a52.84,52.84,0,0,1-61.53-37.38C130.33,140,149.29,109,179.63,103.07a53.05,53.05,0,0,1,62.3,41.4,51.6,51.6,0,0,1,1,9.76c0,.68-.17.89-.86.89-4.6,0-9.2,0-13.79,0a6.73,6.73,0,0,1-.55-3.12,38.29,38.29,0,0,0-4.44-15c-6.26-11.06-15.69-17.61-28.22-19.47A36.47,36.47,0,0,0,171.21,122,38,38,0,0,0,154,142.51c-.16.45-.27.92-.42,1.38a41.06,41.06,0,0,0-1.7,10.49,36,36,0,0,0,.52,6.79A3.48,3.48,0,0,1,152.46,162.71Z"/><path class="cls-3" d="M255.3,173.18c.36-10.12.57-20.23.12-30.35S254,122.91,251,113.29a5.13,5.13,0,0,1-.14-1.78,1.89,1.89,0,0,1,1.89-1.91,132.75,132.75,0,0,0,19.63-3.09,1.45,1.45,0,0,1,2,1,15.9,15.9,0,0,1,1,5.15,17.56,17.56,0,0,0,.82,4.94c.47,1.28.9,1.39,2,.67,2.76-1.77,5.5-3.58,8.3-5.27a36.55,36.55,0,0,1,22-5.18,18.08,18.08,0,0,1,4.38.62,2,2,0,0,1,1.59,2.19,149.55,149.55,0,0,1-1.44,20c-.3,2-1,2.63-3,2.58-3.32-.09-6.6-.64-9.91-.85a34.37,34.37,0,0,0-10.36.75c-6.72,1.63-9.74,5.07-10.59,11.89a106.35,106.35,0,0,0-.73,12c-.18,14.36.43,28.7.89,43.05.06,1.68.09,3.36.07,5,0,2-.86,2.82-2.87,2.82-6.32,0-12.63-.36-18.95-.25-1.65,0-2.4-.76-2.4-2.46,0-6.6.07-13.2.1-19.8C255.31,181.26,255.3,177.22,255.3,173.18Z"/><path class="cls-3" d="M458.13,208.4c-1.56,0-3.13.06-4.68,0s-2.19-.64-2.56-2.19a8.61,8.61,0,0,1-.26-1.89c0-4.42-.93-8.74-1.18-13.13-.15-2.66.23-3.27,2.91-3.53a22.71,22.71,0,0,1,3.94.28,34.16,34.16,0,0,0,13.95-1.57c5.19-1.8,7.77-5.41,7.7-10.47a8.74,8.74,0,0,0-2.37-5.63,20.59,20.59,0,0,0-5.84-4.52c-4.52-2.49-9-5-13.41-7.7-7.73-4.7-11.28-11.73-11.48-20.58-.33-15.05,8.16-26.33,23-30.75a53.53,53.53,0,0,1,14.77-2.16c2.1,0,2.78.42,3.43,2.42,1.18,3.65,2.25,7.33,3.14,11.06.29,1.2.59,2.4.85,3.61.39,1.82-.09,2.54-1.93,2.8-2.57.37-5.16.61-7.73,1s-5,.31-7.42,1.22c-3.25,1.24-5.69,3.21-6.22,6.92a6.53,6.53,0,0,0,1.39,5,24,24,0,0,0,7.41,6,127.09,127.09,0,0,1,12.93,8c6.93,5.21,10.43,12.25,10.8,20.86.33,7.83-1.52,15-6.64,21.09C487.17,201.1,480.06,205,471.92,207A49.66,49.66,0,0,1,458.13,208.4Z"/><path class="cls-3" d="M412.31,174.61c0-.56.05-1.11.05-1.67V73.85c0-3.26,1-4.29,4.28-4.29,4.44,0,8.88,0,13.32,0,2.59,0,3.8,1.23,3.8,3.83V207.14c0,2.55-1.19,3.75-3.72,3.75q-7,0-14,0c-2.47,0-3.62-1.2-3.66-3.69,0-3.51.13-7-.09-10.54a2.71,2.71,0,0,1-.25-1.51q0-9.21,0-18.42A12.6,12.6,0,0,1,412.31,174.61Z"/><path class="cls-1" d="M412.31,174.61q0,10.8,0,21.58a2.6,2.6,0,0,1-.09.47,51.14,51.14,0,0,1-25.92,11c-17.83,2.11-33.22-3.21-45.63-16.22A50.66,50.66,0,0,1,326.32,153c.7-15.9,7.42-29,19.65-39.17.62-.52.95-.68,1.54.12,2.54,3.39,5.14,6.73,7.76,10.07.43.54.48.8-.12,1.3A38,38,0,0,0,341,153.81c-.91,18.2,12.63,35.33,30.55,38.84A38.51,38.51,0,0,0,412.31,174.61Z"/><path class="cls-3" d="M152.46,162.71a28.17,28.17,0,0,1-.85-8.52,35.48,35.48,0,0,1,1.73-10.46,7.86,7.86,0,0,1,3.39-.59c9.13-.89,18.26-1.86,27.39-2.76,8.3-.82,16.6-1.68,24.9-2.53,4.41-.45,8.81-.95,13.22-1.31a1.71,1.71,0,0,1,1.27.18,35.2,35.2,0,0,1,4.33,12.66,49.43,49.43,0,0,1,.49,5.7q-15.09,1.51-30.18,3c-9.86,1-19.72,2-29.58,3C163.2,161.67,157.83,162.18,152.46,162.71Z"/><path class="cls-1" d="M.53,259.46q-.23-3.73-.53-6a19.48,19.48,0,0,0,3.51,1.22,12.58,12.58,0,0,0,2.71.34,5.56,5.56,0,0,0,2.44-.45,1.41,1.41,0,0,0,.9-1.32,1.79,1.79,0,0,0-.09-.57,2.1,2.1,0,0,0-.33-.62,4.65,4.65,0,0,0-.7-.75l-3.32-2.88c-.77-.66-1.31-1.13-1.62-1.42a11.2,11.2,0,0,1-1.45-1.67,5.73,5.73,0,0,1-.76-1.58,5.85,5.85,0,0,1-.24-1.69,6,6,0,0,1,.38-2.1,6.26,6.26,0,0,1,1.14-1.93,6.54,6.54,0,0,1,2-1.55,9,9,0,0,1,2.67-.88,17.68,17.68,0,0,1,2.94-.24,33.67,33.67,0,0,1,6.47.69c0,.8.07,1.55.12,2.22s.16,1.85.33,3.54a16.14,16.14,0,0,0-3-.9,12.61,12.61,0,0,0-2.3-.26,4.58,4.58,0,0,0-2.28.51,1.47,1.47,0,0,0-.9,1.27,1.63,1.63,0,0,0,.14.68,3.08,3.08,0,0,0,.52.78,9.79,9.79,0,0,0,1,1c.43.36,1.09.89,2,1.59l1.27,1c.37.31.77.68,1.21,1.11a11.52,11.52,0,0,1,1.12,1.28,7,7,0,0,1,.73,1.16,4.89,4.89,0,0,1,.38,1.07,5.2,5.2,0,0,1,.12,1.15,6.43,6.43,0,0,1-2.9,5.37,9.09,9.09,0,0,1-3,1.29,15.78,15.78,0,0,1-3.5.37A40,40,0,0,1,.53,259.46Z"/><path class="cls-1" d="M30.88,241.43a13.38,13.38,0,0,1,4.2.66,9.5,9.5,0,0,1,3.4,1.93A7.83,7.83,0,0,1,40.53,247a9.73,9.73,0,0,1,.66,3.61,10.87,10.87,0,0,1-.59,3.57,8.89,8.89,0,0,1-2,3.19A8.65,8.65,0,0,1,35,259.55a14.55,14.55,0,0,1-8.88.09,9.3,9.3,0,0,1-3.44-1.9,7.89,7.89,0,0,1-2.07-3,9.85,9.85,0,0,1-.7-3.66,10,10,0,0,1,.68-3.65,8.67,8.67,0,0,1,2.14-3.13,9.9,9.9,0,0,1,3.63-2.14A14,14,0,0,1,30.88,241.43Zm-.12,5.16a3.45,3.45,0,0,0-3.33,2.28,6.5,6.5,0,0,0-.45,2.44,4.16,4.16,0,0,0,1,3,3.2,3.2,0,0,0,2.43,1,3.49,3.49,0,0,0,2-.59A3.64,3.64,0,0,0,33.69,253a6.73,6.73,0,0,0,.45-2.47,5.32,5.32,0,0,0-.35-2,3,3,0,0,0-1.16-1.41A3.31,3.31,0,0,0,30.76,246.59Z"/><path class="cls-1" d="M44.56,259.83q.33-3.37.81-12.9H43.22c0-.36.09-1.14.15-2.32s.11-2,.12-2.57H46c0-.47,0-.87,0-1.21a15.1,15.1,0,0,1,.16-2.53,4.05,4.05,0,0,1,.62-1.56A4.13,4.13,0,0,1,48,235.6a5.32,5.32,0,0,1,1.85-.68,13.54,13.54,0,0,1,2.14-.17,19.41,19.41,0,0,1,2.2.13,20.57,20.57,0,0,1,2.84.57c0,1.86.11,3.41.23,4.64a9.3,9.3,0,0,0-3.13-.63,2.22,2.22,0,0,0-1.48.44,2,2,0,0,0-.54,1.61l0,.53h4c-.09,1.35-.19,3-.28,4.89H52.24l-.58,12.9-3.58,0Z"/><path class="cls-1" d="M71.12,254.66c-.21,1-.39,2-.54,2.89l-.39,2.14a25.83,25.83,0,0,1-2.72.49,17.69,17.69,0,0,1-1.89.11,12.39,12.39,0,0,1-2.65-.26A4.25,4.25,0,0,1,61,259.1a3.46,3.46,0,0,1-1.06-1.55,6,6,0,0,1-.28-1.87c0-.11,0-.32,0-.62s0-1,.12-2l.38-6.08H57.45c0-.81.11-1.87.15-3.2l.06-1.63h2.91c.07-.54.16-1.72.26-3.54l3-.61c.55-.11,1.72-.38,3.52-.81-.08,1.54-.14,3.19-.18,5h4c-.09,2.43-.14,4-.14,4.83H67l-.22,4.4q0,1,0,1.26a4.74,4.74,0,0,0,.18,1.41,1.4,1.4,0,0,0,.65.81,2.26,2.26,0,0,0,1,.24,6.73,6.73,0,0,0,.88-.06A14.54,14.54,0,0,0,71.12,254.66Z"/><path class="cls-1" d="M78.09,259.83q-3.89-12.37-6-17.95c1.15,0,2.31,0,3.47,0s2.13,0,3.11,0l2.5,9.21.42,1.82,1.16-3.63,2.52-7.4c1.14,0,2.3,0,3.48,0s2.36,0,3.31,0l2.43,9.85.23,1.18.28-.88c.07-.23.25-.74.53-1.55l3-8.6c1.14,0,2.21,0,3.19,0s2,0,3.34,0l-6.46,15.17-1.13,2.78-3.09,0-3.61,0-1.24-5.08q-.36-1.45-1.23-5.55-2.61,7.53-3.8,10.63l-3,0Z"/><path class="cls-1" d="M107.7,247q.33-1.74.42-2.4c.06-.44.16-1.13.28-2.07a42.23,42.23,0,0,1,8.71-1.1,14.53,14.53,0,0,1,3.79.46,5.47,5.47,0,0,1,2.69,1.51,4.17,4.17,0,0,1,1,3c0,.65-.09,2.13-.26,4.43s-.31,5.3-.41,9c-1.14,0-2.29,0-3.43,0l-3.51,0c.16-1.29.33-3.95.53-8-.45.21-.79.36-1,.46l-1.33.42c-.63.19-1.12.35-1.48.47a3.42,3.42,0,0,0-.93.5,2,2,0,0,0-.56.61,1.51,1.51,0,0,0-.17.7,1.31,1.31,0,0,0,.48,1,2.18,2.18,0,0,0,1.51.43,4.45,4.45,0,0,0,.79-.07,7.38,7.38,0,0,0,1.16-.3c-.34.9-.74,2.22-1.21,4a17.32,17.32,0,0,1-2.87.25,9.36,9.36,0,0,1-3.63-.61,4.54,4.54,0,0,1-2.23-2,5.36,5.36,0,0,1-.78-2.71,4.45,4.45,0,0,1,.29-1.61,5.25,5.25,0,0,1,.9-1.55,6.34,6.34,0,0,1,1.44-1.29,9.71,9.71,0,0,1,2.26-1,29.06,29.06,0,0,1,3.63-.9c.61-.12,1.17-.24,1.68-.38a7,7,0,0,0,1.09-.35,1.69,1.69,0,0,0,.52-.35,1.1,1.1,0,0,0,.29-.42,1.23,1.23,0,0,0,.09-.47,1.17,1.17,0,0,0-.56-1,3.11,3.11,0,0,0-1.65-.36A21.6,21.6,0,0,0,107.7,247Z"/><path class="cls-1" d="M127.83,259.83l.54-7.8.18-4.49c0-.8,0-1.63,0-2.47s0-1.92,0-3.19c1.42,0,2.54,0,3.38,0s2.09,0,3.35,0l-.07,2a11.32,11.32,0,0,1,1.13-1.15,5.86,5.86,0,0,1,1-.69,5,5,0,0,1,1.18-.45,5.34,5.34,0,0,1,1.28-.15,6.91,6.91,0,0,1,1.41.17c0,1.28,0,2.33.09,3.17l.12,2.7a6.83,6.83,0,0,0-1.81-.28,4.78,4.78,0,0,0-1.82.31,3.89,3.89,0,0,0-1.35.93,4.64,4.64,0,0,0-.94,1.56,11.26,11.26,0,0,0-.49,2.95c-.1,1.35-.14,2.89-.14,4.62,0,.61,0,1.37.07,2.27-1.14,0-2.28,0-3.43,0Z"/><path class="cls-1" d="M160.72,254.52c-.16.71-.45,2.4-.88,5.1-1.36.27-2.5.45-3.43.54s-1.86.13-2.81.13a24,24,0,0,1-3.85-.29,8.87,8.87,0,0,1-3-1,7.32,7.32,0,0,1-2.14-1.83,7.9,7.9,0,0,1-1.31-2.61,10.83,10.83,0,0,1-.45-3.11,11.28,11.28,0,0,1,.9-4.4,8.79,8.79,0,0,1,2.31-3.36,8.32,8.32,0,0,1,3.26-1.72,14.12,14.12,0,0,1,3.78-.51,15.32,15.32,0,0,1,3.82.46,7.13,7.13,0,0,1,3.09,1.63,6.71,6.71,0,0,1,1.8,2.62,9,9,0,0,1,.54,3.14,12.61,12.61,0,0,1-.23,2.24H149.77a4.7,4.7,0,0,0,0,.51,3.12,3.12,0,0,0,1.35,2.79,5.93,5.93,0,0,0,3.31.89,14.94,14.94,0,0,0,2.64-.27A37.28,37.28,0,0,0,160.72,254.52Zm-10.81-5.68h5.8c0-.19,0-.36,0-.51a3.42,3.42,0,0,0-.32-1.56,2.09,2.09,0,0,0-.93-1,3,3,0,0,0-1.36-.3,3.12,3.12,0,0,0-1,.17,2.67,2.67,0,0,0-.89.49,2.92,2.92,0,0,0-.66.75,3.21,3.21,0,0,0-.39.82A9.5,9.5,0,0,0,149.91,248.84Z"/><path class="cls-1" d="M173.87,259.83q.38-4,.53-6.41c.14-2.4.28-5.49.42-9.29q.17-4.35.16-6.24v-2c1.37,0,2.55,0,3.55,0s2.22,0,3.78-.08,3-.08,4.39-.08a27.64,27.64,0,0,1,4.13.28,9.82,9.82,0,0,1,3.31,1.16,8.17,8.17,0,0,1,2.58,2.31,10.37,10.37,0,0,1,1.58,3.33,14.34,14.34,0,0,1,.54,3.93,17.14,17.14,0,0,1-.42,3.82,13.89,13.89,0,0,1-1.18,3.31,10.68,10.68,0,0,1-1.76,2.54,10.48,10.48,0,0,1-2.31,1.82,9.87,9.87,0,0,1-1.95.88,14.85,14.85,0,0,1-2.69.51,39.72,39.72,0,0,1-4.31.21l-7.1-.05C176.45,259.78,175.37,259.8,173.87,259.83Zm7.6-5.29q1,.09,2,.09a14.68,14.68,0,0,0,3.2-.32,5.07,5.07,0,0,0,2.47-1.35,6.22,6.22,0,0,0,1.57-2.67,11,11,0,0,0,.51-3.33,7.51,7.51,0,0,0-.75-3.52,4.29,4.29,0,0,0-2-2,8.55,8.55,0,0,0-3.41-.56c-.85,0-1.84,0-3,.11Z"/><path class="cls-1" d="M218.87,254.52c-.16.71-.45,2.4-.88,5.1-1.36.27-2.51.45-3.43.54s-1.86.13-2.81.13a24,24,0,0,1-3.85-.29,8.93,8.93,0,0,1-3-1,7.41,7.41,0,0,1-2.13-1.83,7.72,7.72,0,0,1-1.31-2.61,10.83,10.83,0,0,1-.45-3.11,11.28,11.28,0,0,1,.9-4.4,8.79,8.79,0,0,1,2.31-3.36,8.32,8.32,0,0,1,3.26-1.72,14.12,14.12,0,0,1,3.78-.51,15.32,15.32,0,0,1,3.82.46,7.13,7.13,0,0,1,3.09,1.63,6.71,6.71,0,0,1,1.8,2.62,9,9,0,0,1,.54,3.14,12.61,12.61,0,0,1-.23,2.24H207.91c0,.19,0,.36,0,.51a3.12,3.12,0,0,0,1.35,2.79,5.9,5.9,0,0,0,3.31.89,14.94,14.94,0,0,0,2.64-.27A37.28,37.28,0,0,0,218.87,254.52Zm-10.81-5.68h5.8c0-.19,0-.36,0-.51a3.42,3.42,0,0,0-.32-1.56,2.09,2.09,0,0,0-.93-1,3.06,3.06,0,0,0-1.37-.3,3.21,3.21,0,0,0-1,.17,2.72,2.72,0,0,0-.88.49,2.92,2.92,0,0,0-.66.75,3.21,3.21,0,0,0-.39.82A9.5,9.5,0,0,0,208.06,248.84Z"/><path class="cls-1" d="M223.54,259.83q.33-3.37.81-12.9h-2.14c0-.36.08-1.14.14-2.32s.11-2,.12-2.57H225c0-.47,0-.87,0-1.21a15.1,15.1,0,0,1,.16-2.53,3.7,3.7,0,0,1,1.89-2.7,5.27,5.27,0,0,1,1.84-.68,13.54,13.54,0,0,1,2.14-.17,19.41,19.41,0,0,1,2.2.13,20.57,20.57,0,0,1,2.84.57c0,1.86.11,3.41.23,4.64a9.3,9.3,0,0,0-3.13-.63,2.22,2.22,0,0,0-1.48.44,2,2,0,0,0-.54,1.61l0,.53h4c-.09,1.35-.19,3-.28,4.89h-3.65l-.58,12.9-3.59,0Z"/><path class="cls-1" d="M236.92,259.83c.16-1.43.28-2.61.37-3.53s.16-2.11.23-3.55.14-3,.2-4.78.11-3.78.14-6.09c1.53,0,2.75,0,3.66,0s2,0,3.59,0c-.2,2.22-.35,4.16-.44,5.84s-.14,3.45-.16,5.33c0,3.32-.07,5.59-.07,6.78l-3.61,0Zm1.11-20.2c.07-1.39.1-2.49.1-3.3,0-.24,0-.55,0-1,1.42,0,2.61,0,3.57,0,1.33,0,2.49,0,3.48,0,0,.36-.06.67-.07.91l-.1,2.18c0,.33,0,.72,0,1.16l-3.34,0Z"/><path class="cls-1" d="M248.08,259.83q.51-4,.78-8.81c.18-3.22.28-6.27.32-9.14,1.41,0,2.62,0,3.64,0,1.19,0,2.32,0,3.42,0l-.18,2.39a14.17,14.17,0,0,1,1-1,5.67,5.67,0,0,1,1.05-.74,6.64,6.64,0,0,1,1.33-.59,10.42,10.42,0,0,1,1.53-.36,11,11,0,0,1,1.75-.13,11.2,11.2,0,0,1,2.47.27,6.6,6.6,0,0,1,2,.77,4.89,4.89,0,0,1,1.35,1.25,4.17,4.17,0,0,1,.72,1.61,8.64,8.64,0,0,1,.18,1.77c0,.45,0,1.41-.15,2.89l-.3,6.36q-.09,1.88-.09,3.48l-3.32,0q-2.09,0-3.81,0c.11-1.07.22-2.65.34-4.75s.17-3.59.17-4.44a3.92,3.92,0,0,0-.76-2.77,2.58,2.58,0,0,0-1.93-.78,3.19,3.19,0,0,0-1.92.66,4.25,4.25,0,0,0-1.4,1.95,15.83,15.83,0,0,0-.7,4.19c-.13,1.94-.22,3.93-.27,5.94l-3.43,0Z"/><path class="cls-1" d="M290.13,254.52c-.16.71-.45,2.4-.88,5.1-1.36.27-2.5.45-3.43.54s-1.86.13-2.81.13a24,24,0,0,1-3.85-.29,8.87,8.87,0,0,1-3-1,7.32,7.32,0,0,1-2.14-1.83,7.9,7.9,0,0,1-1.31-2.61,10.83,10.83,0,0,1-.45-3.11,11.28,11.28,0,0,1,.9-4.4,8.79,8.79,0,0,1,2.31-3.36,8.32,8.32,0,0,1,3.26-1.72,14.12,14.12,0,0,1,3.78-.51,15.32,15.32,0,0,1,3.82.46,7.13,7.13,0,0,1,3.09,1.63,6.71,6.71,0,0,1,1.8,2.62,9,9,0,0,1,.54,3.14,12.61,12.61,0,0,1-.23,2.24H279.18a4.7,4.7,0,0,0,0,.51,3.12,3.12,0,0,0,1.35,2.79,5.93,5.93,0,0,0,3.31.89,14.94,14.94,0,0,0,2.64-.27A37.28,37.28,0,0,0,290.13,254.52Zm-10.81-5.68h5.8c0-.19,0-.36,0-.51a3.42,3.42,0,0,0-.32-1.56,2.09,2.09,0,0,0-.93-1,3,3,0,0,0-1.36-.3,3.12,3.12,0,0,0-1,.17,2.67,2.67,0,0,0-.89.49,3.12,3.12,0,0,0-.66.75,3.21,3.21,0,0,0-.39.82A9.5,9.5,0,0,0,279.32,248.84Z"/><path class="cls-1" d="M313.83,259.83l-3.14,0-3.41,0,.1-2.23c-.45.44-.85.8-1.19,1.08a6.75,6.75,0,0,1-1.31.8,7.94,7.94,0,0,1-1.72.6,8.6,8.6,0,0,1-1.91.21,8.08,8.08,0,0,1-3.15-.62,7,7,0,0,1-2.51-1.75,7.23,7.23,0,0,1-1.54-2.69,10.24,10.24,0,0,1-.51-3.22,12.12,12.12,0,0,1,.93-4.64,9.23,9.23,0,0,1,2.44-3.57A8.77,8.77,0,0,1,300.3,242a15.21,15.21,0,0,1,4.09-.53,25.14,25.14,0,0,1,3.41.26c.1-1.39.16-3.35.19-5.85l3.53,0,3.59,0q-.51,5.22-.9,12.74C314,253.6,313.83,257.35,313.83,259.83Zm-6.27-13.57a8,8,0,0,0-1.76-.21,6,6,0,0,0-2.91.66,4.29,4.29,0,0,0-1.84,2.06,6.49,6.49,0,0,0-.64,2.75,4.46,4.46,0,0,0,.36,1.83,2.87,2.87,0,0,0,1.11,1.3,3.19,3.19,0,0,0,3.44-.07,4,4,0,0,0,1.3-1.6,8.65,8.65,0,0,0,.69-2.51C307.43,249.5,307.51,248.1,307.56,246.26Z"/><path class="cls-1" d="M327,259.83l.35-3.69.68-12.52.2-5v-2.74l4.82,0,4.21,0,7.5,13.64,1,2q.19-3,.4-8.28c.14-3.56.21-6,.21-7.37l3.46,0,3.44,0-.42,5.24-.79,14.55-.11,4.2-4.27,0-4.58,0c-.6-1.15-1.06-2-1.35-2.5l-2.95-5q-1.46-2.46-2.68-4.71c-.54-1-1.1-2-1.67-3.13l-.38,8.33-.18,7-3.32,0Z"/><path class="cls-1" d="M373.73,254.52c-.15.71-.45,2.4-.88,5.1-1.36.27-2.5.45-3.43.54s-1.86.13-2.81.13a24,24,0,0,1-3.85-.29,8.87,8.87,0,0,1-3-1,7.45,7.45,0,0,1-2.14-1.83,7.9,7.9,0,0,1-1.31-2.61,10.83,10.83,0,0,1-.45-3.11,11.28,11.28,0,0,1,.9-4.4,8.79,8.79,0,0,1,2.31-3.36,8.39,8.39,0,0,1,3.26-1.72,14.12,14.12,0,0,1,3.78-.51,15.46,15.46,0,0,1,3.83.46,7.09,7.09,0,0,1,3.08,1.63,6.71,6.71,0,0,1,1.8,2.62,9,9,0,0,1,.54,3.14,12.61,12.61,0,0,1-.23,2.24H362.78c0,.19,0,.36,0,.51a3.12,3.12,0,0,0,1.35,2.79,6,6,0,0,0,3.31.89,14.94,14.94,0,0,0,2.64-.27A36.59,36.59,0,0,0,373.73,254.52Zm-10.81-5.68h5.8c0-.19,0-.36,0-.51a3.42,3.42,0,0,0-.33-1.56,2.09,2.09,0,0,0-.93-1,3,3,0,0,0-1.36-.3,3.21,3.21,0,0,0-1,.17,2.67,2.67,0,0,0-.89.49,3.36,3.36,0,0,0-.66.75,4.05,4.05,0,0,0-.39.82A9.5,9.5,0,0,0,362.92,248.84Z"/><path class="cls-1" d="M390.71,254.66c-.21,1-.39,2-.55,2.89l-.38,2.14a25.83,25.83,0,0,1-2.72.49,17.69,17.69,0,0,1-1.89.11,12.39,12.39,0,0,1-2.65-.26,4.29,4.29,0,0,1-1.94-.93,3.52,3.52,0,0,1-1.05-1.55,6,6,0,0,1-.28-1.87c0-.11,0-.32,0-.62s.05-1,.12-2l.38-6.08H377c.06-.81.11-1.87.16-3.2l.05-1.63h2.92c.07-.54.15-1.72.26-3.54l3-.61c.55-.11,1.72-.38,3.52-.81-.08,1.54-.14,3.19-.18,5h4c-.09,2.43-.14,4-.14,4.83h-4.05l-.21,4.4q0,1,0,1.26a4.74,4.74,0,0,0,.18,1.41,1.4,1.4,0,0,0,.65.81,2.23,2.23,0,0,0,1,.24,6.73,6.73,0,0,0,.88-.06A15.08,15.08,0,0,0,390.71,254.66Z"/><path class="cls-1" d="M397.68,259.83q-3.9-12.37-5.95-17.95c1.15,0,2.3,0,3.46,0s2.13,0,3.12,0l2.5,9.21.42,1.82,1.16-3.63,2.52-7.4c1.14,0,2.3,0,3.48,0s2.36,0,3.31,0l2.43,9.85.23,1.18.28-.88c.07-.23.25-.74.53-1.55l3-8.6c1.15,0,2.22,0,3.2,0s2,0,3.34,0l-6.47,15.17-1.12,2.78-3.09,0-3.61,0-1.24-5.08q-.36-1.45-1.23-5.55-2.61,7.53-3.8,10.63l-3,0Z"/><path class="cls-1" d="M436.1,241.43a13.36,13.36,0,0,1,4.19.66,9.5,9.5,0,0,1,3.4,1.93,7.72,7.72,0,0,1,2.05,2.94,9.73,9.73,0,0,1,.66,3.61,10.87,10.87,0,0,1-.59,3.57,8.75,8.75,0,0,1-2,3.19,8.61,8.61,0,0,1-3.57,2.22,14.58,14.58,0,0,1-8.89.09,9.3,9.3,0,0,1-3.44-1.9,7.89,7.89,0,0,1-2.07-3,9.85,9.85,0,0,1-.7-3.66,10,10,0,0,1,.68-3.65,8.58,8.58,0,0,1,2.15-3.13,9.74,9.74,0,0,1,3.63-2.14A13.88,13.88,0,0,1,436.1,241.43Zm-.13,5.16a3.45,3.45,0,0,0-3.33,2.28,6.5,6.5,0,0,0-.45,2.44,4.2,4.2,0,0,0,1,3,3.2,3.2,0,0,0,2.43,1,3.49,3.49,0,0,0,2-.59A3.64,3.64,0,0,0,438.9,253a6.73,6.73,0,0,0,.45-2.47,5.32,5.32,0,0,0-.35-2,3,3,0,0,0-1.16-1.41A3.31,3.31,0,0,0,436,246.59Z"/><path class="cls-1" d="M449,259.83l.54-7.8.18-4.49c0-.8,0-1.63,0-2.47s0-1.92,0-3.19c1.42,0,2.55,0,3.38,0s2.09,0,3.36,0l-.08,2a11.32,11.32,0,0,1,1.13-1.15,6.29,6.29,0,0,1,1-.69,5.13,5.13,0,0,1,1.18-.45,5.4,5.4,0,0,1,1.28-.15,6.91,6.91,0,0,1,1.41.17c0,1.28,0,2.33.09,3.17l.12,2.7a6.77,6.77,0,0,0-1.81-.28,4.78,4.78,0,0,0-1.82.31,4,4,0,0,0-1.35.93,4.81,4.81,0,0,0-.94,1.56,11.26,11.26,0,0,0-.49,2.95c-.09,1.35-.14,2.89-.14,4.62,0,.61,0,1.37.07,2.27-1.14,0-2.28,0-3.43,0Z"/><path class="cls-1" d="M464.38,259.83c.16-1.5.28-2.72.35-3.66.09-1.27.18-2.87.28-4.79l.19-4.17c.08-1.89.14-3.69.17-5.41.05-2.07.07-4.05.07-6l3.7,0,3.38,0q-.4,4.6-.75,11.44t-.33,12.55l-3.44,0Zm7.75-10.1,3-4.35,2.27-3.5c1.62,0,2.84,0,3.68,0,1.14,0,2.5,0,4.07,0l-3.49,4.55c-.82,1-1.66,2.17-2.52,3.37q1.23,2.28,5.93,10l-3.71,0-3.87,0-1.09-2.2c-.39-.76-.72-1.4-1-1.92-.11-.21-.91-1.64-2.41-4.31Z"/><path class="cls-1" d="M486.77,259.5c0-.52-.09-1.06-.14-1.63s-.12-1.35-.23-2.35l-.14-1.26a27.4,27.4,0,0,0,2.93,1,8.77,8.77,0,0,0,2.27.33,5.25,5.25,0,0,0,1.39-.16,1.54,1.54,0,0,0,.78-.46,1,1,0,0,0,.25-.61,1,1,0,0,0-.19-.56,3.62,3.62,0,0,0-.83-.74c-1-.71-1.8-1.35-2.53-1.92a9.8,9.8,0,0,1-1.65-1.53,4.89,4.89,0,0,1-.84-1.44,4.4,4.4,0,0,1-.29-1.6,4.94,4.94,0,0,1,.83-2.73,4.73,4.73,0,0,1,2.46-1.83,12.12,12.12,0,0,1,4-.57,39.6,39.6,0,0,1,6.24.63l.28,4.92a11.17,11.17,0,0,0-4.1-.84,5.23,5.23,0,0,0-2,.28.93.93,0,0,0-.62.88.94.94,0,0,0,.07.37,1.2,1.2,0,0,0,.25.37,3.12,3.12,0,0,0,.46.39c.18.14.62.45,1.33.94s1.25.9,1.65,1.21a9.54,9.54,0,0,1,1.5,1.44,5,5,0,0,1,.79,1.4,4.64,4.64,0,0,1,.27,1.58,4.53,4.53,0,0,1-.6,2.29,4.9,4.9,0,0,1-1.83,1.75,8.71,8.71,0,0,1-2.65,1,15.65,15.65,0,0,1-2.93.27,22.84,22.84,0,0,1-2.56-.18C489.33,260,488.13,259.79,486.77,259.5Z"/><path class="cls-1" d="M108.39,303q.33-3.09.53-5.57c.12-1.65.24-3.57.33-5.75s.17-4.48.21-6.9.07-4.34.07-5.77c1.47,0,2.65,0,3.55,0s2.08,0,3.43-.08,2.66-.08,3.94-.08a39.55,39.55,0,0,1,4,.18,9.61,9.61,0,0,1,2.4.51,6.9,6.9,0,0,1,1.82.94,5.78,5.78,0,0,1,1.23,1.24,5.12,5.12,0,0,1,.77,1.61,7,7,0,0,1,.27,2,7.87,7.87,0,0,1-.3,2.21,6.4,6.4,0,0,1-.94,1.93,6.22,6.22,0,0,1-1.62,1.57,14.44,14.44,0,0,1-2.73,1.34l.91,2.23c.26.63.54,1.26.83,1.9l2.36,5.15c.1.23.29.67.56,1.32l-3.9,0L122,303q-.28-.91-1-3.39c-.2-.69-.37-1.23-.51-1.6-.28-.83-.7-2-1.25-3.5l-1.81-5a10.81,10.81,0,0,0,1.86.17,6.86,6.86,0,0,0,2.33-.38,3.1,3.1,0,0,0,1.58-1.2,3,3,0,0,0,.54-1.7,2.3,2.3,0,0,0-.4-1.33,2.38,2.38,0,0,0-1.28-.85,9.22,9.22,0,0,0-2.68-.29l-1.27,0-1.54,0c-.15,2.41-.29,5.34-.4,8.79s-.19,6.85-.23,10.18l-3.82,0Z"/><path class="cls-1" d="M150.84,297.72c-.15.71-.45,2.41-.88,5.1-1.36.27-2.5.45-3.43.54s-1.86.13-2.81.13a24,24,0,0,1-3.85-.29,8.87,8.87,0,0,1-3-1,7.45,7.45,0,0,1-2.14-1.83,7.9,7.9,0,0,1-1.31-2.61,10.83,10.83,0,0,1-.45-3.11,11.28,11.28,0,0,1,.9-4.4,8.87,8.87,0,0,1,2.31-3.36,8.32,8.32,0,0,1,3.26-1.72,14.12,14.12,0,0,1,3.78-.51,15.32,15.32,0,0,1,3.82.46,7.07,7.07,0,0,1,3.09,1.63,6.71,6.71,0,0,1,1.8,2.62,9,9,0,0,1,.54,3.14,12.61,12.61,0,0,1-.23,2.24H139.89c0,.19,0,.36,0,.51a3.12,3.12,0,0,0,1.35,2.79,6,6,0,0,0,3.31.89,14.94,14.94,0,0,0,2.64-.27A37.28,37.28,0,0,0,150.84,297.72ZM140,292h5.8c0-.19,0-.36,0-.5a3.44,3.44,0,0,0-.33-1.57,2.09,2.09,0,0,0-.93-1,3,3,0,0,0-1.36-.3,3.21,3.21,0,0,0-1,.17,2.86,2.86,0,0,0-.89.49,3.36,3.36,0,0,0-.66.75,3.58,3.58,0,0,0-.39.82A9.5,9.5,0,0,0,140,292Z"/><path class="cls-1" d="M154.6,302.7c0-.52-.09-1.06-.14-1.63s-.12-1.35-.23-2.35l-.14-1.26a26.68,26.68,0,0,0,2.93,1,8.76,8.76,0,0,0,2.26.33,5.2,5.2,0,0,0,1.39-.16,1.62,1.62,0,0,0,.79-.46,1,1,0,0,0,.24-.61,1,1,0,0,0-.18-.56,3.74,3.74,0,0,0-.84-.74c-1-.71-1.8-1.35-2.53-1.92a10.65,10.65,0,0,1-1.65-1.53,5,5,0,0,1-.84-1.44,4.62,4.62,0,0,1-.29-1.6,4.82,4.82,0,0,1,.84-2.72,4.62,4.62,0,0,1,2.46-1.84,12,12,0,0,1,4-.57,39.6,39.6,0,0,1,6.24.63l.28,4.92a11.08,11.08,0,0,0-4.09-.84,5.16,5.16,0,0,0-2,.28.94.94,0,0,0-.63.88,1.16,1.16,0,0,0,.07.37,1.26,1.26,0,0,0,.26.37,3,3,0,0,0,.45.39l1.33.94c.7.49,1.26.9,1.65,1.22a8.83,8.83,0,0,1,1.51,1.43,5.28,5.28,0,0,1,.79,1.4,4.64,4.64,0,0,1,.27,1.58,4.44,4.44,0,0,1-.61,2.29,4.8,4.8,0,0,1-1.82,1.75,8.71,8.71,0,0,1-2.65,1,15.76,15.76,0,0,1-2.94.27,22.53,22.53,0,0,1-2.55-.18A35.86,35.86,0,0,1,154.6,302.7Z"/><path class="cls-1" d="M189.53,297.72c-.15.71-.45,2.41-.88,5.1-1.36.27-2.5.45-3.43.54s-1.86.13-2.81.13a24,24,0,0,1-3.85-.29,8.87,8.87,0,0,1-3-1,7.32,7.32,0,0,1-2.14-1.83,7.9,7.9,0,0,1-1.31-2.61,10.83,10.83,0,0,1-.45-3.11,11.28,11.28,0,0,1,.9-4.4,8.87,8.87,0,0,1,2.31-3.36,8.32,8.32,0,0,1,3.26-1.72,14.12,14.12,0,0,1,3.78-.51,15.32,15.32,0,0,1,3.82.46,7.07,7.07,0,0,1,3.09,1.63,6.71,6.71,0,0,1,1.8,2.62,9,9,0,0,1,.54,3.14,12.61,12.61,0,0,1-.23,2.24H178.58a4.7,4.7,0,0,0,0,.51,3.12,3.12,0,0,0,1.35,2.79,5.93,5.93,0,0,0,3.31.89,14.94,14.94,0,0,0,2.64-.27A37.28,37.28,0,0,0,189.53,297.72ZM178.72,292h5.8c0-.19,0-.36,0-.5a3.44,3.44,0,0,0-.33-1.57,2.09,2.09,0,0,0-.93-1,3,3,0,0,0-1.36-.3,3.16,3.16,0,0,0-1,.17,2.86,2.86,0,0,0-.89.49,3.12,3.12,0,0,0-.66.75,3.58,3.58,0,0,0-.39.82A9.5,9.5,0,0,0,178.72,292Z"/><path class="cls-1" d="M195.08,290.2q.34-1.74.42-2.4c.06-.44.16-1.13.29-2.07a42.07,42.07,0,0,1,8.7-1.1,14.47,14.47,0,0,1,3.79.46,5.55,5.55,0,0,1,2.7,1.51,4.21,4.21,0,0,1,1,3c0,.65-.09,2.13-.26,4.43s-.31,5.3-.4,9l-3.43,0-3.52,0q.24-1.93.53-8c-.44.21-.79.36-1,.46l-1.33.42c-.63.19-1.12.35-1.48.47a3.42,3.42,0,0,0-.93.5,2,2,0,0,0-.56.61,1.51,1.51,0,0,0-.17.7,1.31,1.31,0,0,0,.48,1,2.2,2.2,0,0,0,1.51.43,4.45,4.45,0,0,0,.79-.07,7.38,7.38,0,0,0,1.16-.3c-.34.9-.74,2.22-1.21,3.95a17.23,17.23,0,0,1-2.87.25,9.36,9.36,0,0,1-3.63-.61,4.54,4.54,0,0,1-2.23-2,5.36,5.36,0,0,1-.78-2.71,4.72,4.72,0,0,1,.29-1.61,5.25,5.25,0,0,1,.9-1.55,6.34,6.34,0,0,1,1.44-1.29,9.71,9.71,0,0,1,2.26-1,29.06,29.06,0,0,1,3.63-.9c.61-.12,1.17-.24,1.68-.38a7,7,0,0,0,1.09-.35,1.88,1.88,0,0,0,.53-.35,1.27,1.27,0,0,0,.29-.42,1.45,1.45,0,0,0,.08-.47,1.15,1.15,0,0,0-.56-1,3.06,3.06,0,0,0-1.65-.36A21.65,21.65,0,0,0,195.08,290.2Z"/><path class="cls-1" d="M215.21,303l.54-7.8.18-4.49c0-.8,0-1.63,0-2.47s0-1.92,0-3.19c1.42,0,2.54,0,3.38,0s2.09,0,3.36,0l-.08,2a11.32,11.32,0,0,1,1.13-1.15,5.86,5.86,0,0,1,1-.69,5,5,0,0,1,1.18-.45,5.4,5.4,0,0,1,1.28-.15,6.91,6.91,0,0,1,1.41.17c0,1.28,0,2.33.09,3.17l.12,2.7a6.77,6.77,0,0,0-1.81-.28,5,5,0,0,0-1.82.31,3.89,3.89,0,0,0-1.35.93,4.81,4.81,0,0,0-.94,1.56,11.26,11.26,0,0,0-.49,2.95c-.1,1.35-.14,2.89-.14,4.62,0,.61,0,1.37.07,2.27-1.14,0-2.28,0-3.43,0Z"/><path class="cls-1" d="M245.67,297.42c-.06.47-.2,1.33-.42,2.59l-.46,2.81a22.65,22.65,0,0,1-5.39.67,12.92,12.92,0,0,1-3.36-.39,7.55,7.55,0,0,1-3.06-1.62,7,7,0,0,1-2-2.83,11.61,11.61,0,0,1-.76-4.28,12.24,12.24,0,0,1,.74-4.21,8.3,8.3,0,0,1,2.18-3.33,7.39,7.39,0,0,1,3.2-1.75,15.68,15.68,0,0,1,3.89-.45,23.58,23.58,0,0,1,2.51.13,26.72,26.72,0,0,1,3.13.57l0,.4c0,.43.06.86.08,1.3s.06,1.13.12,2.08l.1,1.56a13.85,13.85,0,0,0-4.45-.88,5.24,5.24,0,0,0-2.43.54,3.42,3.42,0,0,0-1.55,1.55,5.24,5.24,0,0,0-.5,2.34,5.1,5.1,0,0,0,.45,2.27,2.89,2.89,0,0,0,1.43,1.37,5,5,0,0,0,2.17.46,9.91,9.91,0,0,0,1.41-.12,14.29,14.29,0,0,0,1.42-.28A11.1,11.1,0,0,0,245.67,297.42Z"/><path class="cls-1" d="M248.8,303c.19-1.74.32-3.18.41-4.31.16-2.35.33-5.09.51-8.2q.15-3.11.24-5.95c0-1.89.08-3.74.08-5.53l3.63,0c1.27,0,2.46,0,3.59,0l-.37,4.25c-.06.7-.15,2.13-.28,4.27a13.82,13.82,0,0,1,.95-1.1,5.92,5.92,0,0,1,.82-.66,5.58,5.58,0,0,1,.91-.52,6.35,6.35,0,0,1,1.07-.37,9.7,9.7,0,0,1,1.34-.25,12.21,12.21,0,0,1,1.5-.09,12.49,12.49,0,0,1,2.89.34,5.55,5.55,0,0,1,2.38,1.17,4.22,4.22,0,0,1,1.34,1.86,7.09,7.09,0,0,1,.35,2.26c0,.32,0,.73,0,1.26s-.05,1.18-.11,2l-.39,5.93c0,.74-.07,1.35-.08,1.83V303l-3.5,0-3.82,0c.2-1.56.37-3.35.52-5.39s.23-3.54.23-4.54a3.15,3.15,0,0,0-.69-2.32,2.54,2.54,0,0,0-1.84-.67,3.85,3.85,0,0,0-1.82.42,3.51,3.51,0,0,0-1.23,1.15,5.71,5.71,0,0,0-.75,1.88,28.2,28.2,0,0,0-.55,4.41c-.07,1.08-.14,2.76-.21,5.06l-3.31,0Z"/><path class="cls-1" d="M296.74,289l4.58,0c2.49,0,4.43,0,5.84,0-.15,1.6-.31,3.88-.46,6.82s-.26,5.16-.29,6.66c-1.35.25-2.47.43-3.35.54s-1.95.21-3.19.3-2.35.13-3.33.13a28.09,28.09,0,0,1-4.69-.39,15.42,15.42,0,0,1-4.12-1.25,8.49,8.49,0,0,1-3-2.33,10.69,10.69,0,0,1-1.88-3.5,13.41,13.41,0,0,1-.66-4.19,13,13,0,0,1,1.78-6.62,12.66,12.66,0,0,1,5.11-4.85,18.13,18.13,0,0,1,8.6-1.78,44.06,44.06,0,0,1,8.53.93c0,1.71.07,3.62.22,5.71-.84-.28-1.52-.49-2-.64s-1.13-.28-1.83-.4-1.36-.22-2-.27-1.18-.09-1.68-.09a11.81,11.81,0,0,0-3.65.55,7.71,7.71,0,0,0-3,1.71,7.14,7.14,0,0,0-1.86,2.75,9.28,9.28,0,0,0-.61,3.37,7.14,7.14,0,0,0,.7,3.23,4.66,4.66,0,0,0,2.23,2.15,7.79,7.79,0,0,0,3.41.74,14.24,14.24,0,0,0,3.43-.46l.2-3.81c-.76,0-1.22-.05-1.36-.05h-1.86l.12-2.16c0-.23,0-.57.05-1S296.74,289.8,296.74,289Z"/><path class="cls-1" d="M310.48,303l.55-7.8.17-4.49c0-.8,0-1.63,0-2.47s0-1.92,0-3.19c1.42,0,2.55,0,3.38,0s2.09,0,3.36,0l-.08,2a12.49,12.49,0,0,1,1.13-1.15,6.29,6.29,0,0,1,1-.69,5.13,5.13,0,0,1,1.18-.45,5.4,5.4,0,0,1,1.28-.15,6.75,6.75,0,0,1,1.41.17c0,1.28,0,2.33.09,3.17l.12,2.7a6.71,6.71,0,0,0-1.81-.28,4.93,4.93,0,0,0-1.81.31,4,4,0,0,0-1.36.93,4.81,4.81,0,0,0-.94,1.56,11.71,11.71,0,0,0-.49,2.95c-.09,1.35-.14,2.89-.14,4.62,0,.61,0,1.37.07,2.27-1.14,0-2.28,0-3.43,0Z"/><path class="cls-1" d="M336.43,284.63a13.36,13.36,0,0,1,4.19.66,9.42,9.42,0,0,1,3.4,1.93,7.72,7.72,0,0,1,2.05,2.94,9.73,9.73,0,0,1,.66,3.61,10.87,10.87,0,0,1-.59,3.57,8.75,8.75,0,0,1-2,3.19,8.61,8.61,0,0,1-3.57,2.22,14.58,14.58,0,0,1-8.89.09,9.26,9.26,0,0,1-3.43-1.9,7.92,7.92,0,0,1-2.08-3,9.84,9.84,0,0,1-.69-3.66,10,10,0,0,1,.67-3.65,8.58,8.58,0,0,1,2.15-3.13,9.9,9.9,0,0,1,3.63-2.14A13.88,13.88,0,0,1,336.43,284.63Zm-.13,5.16a3.49,3.49,0,0,0-3.33,2.28,6.49,6.49,0,0,0-.44,2.44,4.2,4.2,0,0,0,1,3,3.23,3.23,0,0,0,2.43,1,3.47,3.47,0,0,0,2-.59,3.64,3.64,0,0,0,1.33-1.74,6.73,6.73,0,0,0,.45-2.47,5.32,5.32,0,0,0-.35-2,3,3,0,0,0-1.15-1.41A3.37,3.37,0,0,0,336.3,289.79Z"/><path class="cls-1" d="M369,303l-3.34,0-3.32,0,0-2.41a10,10,0,0,1-1.07,1.19,6.48,6.48,0,0,1-1,.69,6.17,6.17,0,0,1-1.16.52,8.72,8.72,0,0,1-1.48.35,11.8,11.8,0,0,1-1.69.12,10.13,10.13,0,0,1-2.63-.33,5.49,5.49,0,0,1-2.18-1.1,3.86,3.86,0,0,1-1.28-1.75,6.93,6.93,0,0,1-.35-2.29c0-.21,0-.54.06-1l.28-4c.08-1.47.15-3.09.22-4.87.05-1.09.08-2.12.08-3.1,1.45,0,2.69,0,3.71,0s2.16,0,3.41,0l-.55,6.7c-.08,1-.13,1.72-.13,2.08s0,.62,0,.75a3.26,3.26,0,0,0,.75,2.5,2.65,2.65,0,0,0,1.79.65,2.72,2.72,0,0,0,.84-.13,3.2,3.2,0,0,0,.81-.35,2.77,2.77,0,0,0,.62-.52,3.66,3.66,0,0,0,.53-.81,5.26,5.26,0,0,0,.42-1.25,18.48,18.48,0,0,0,.3-2.36c.05-.69.11-1.88.19-3.58l.14-3.68c1.51,0,2.75,0,3.72,0s2.18,0,3.28,0q-.39,4.47-.63,8.49C369.2,296.26,369.09,299.41,369,303Z"/><path class="cls-1" d="M372.45,311.26c.22-2.4.4-4.8.56-7.19q.4-6.13.55-10.29c.1-2.78.15-5.52.15-8.24,2.38-.36,4.24-.61,5.59-.73s2.7-.18,4-.18a19.44,19.44,0,0,1,4.66.52,7,7,0,0,1,3.42,1.87,8.6,8.6,0,0,1,1.94,3.18,11.4,11.4,0,0,1,.65,3.87,12.19,12.19,0,0,1-.52,3.57,9.28,9.28,0,0,1-1.62,3.12,6.92,6.92,0,0,1-2.5,2.06,7.2,7.2,0,0,1-3.15.67,10.21,10.21,0,0,1-1.79-.17,10.09,10.09,0,0,1-3.12-1.12,16.48,16.48,0,0,1-1.38-.94l-.2,4.9q-.12,3.38-.12,5.1c-1.36,0-2.53,0-3.5,0S374,311.23,372.45,311.26Zm8.1-21.24c-.1.53-.16,1-.2,1.3s-.07.78-.1,1.35-.05,1-.05,1.36a5.78,5.78,0,0,0,.44,2.42,3.6,3.6,0,0,0,1.25,1.51,3,3,0,0,0,1.72.54,3.07,3.07,0,0,0,1.77-.56,3.74,3.74,0,0,0,1.29-1.66,6.39,6.39,0,0,0,.47-2.49,4.46,4.46,0,0,0-1-3,3.63,3.63,0,0,0-2.89-1.14A10.58,10.58,0,0,0,380.55,290Z"/></g></g></svg>