<svg xmlns="http://www.w3.org/2000/svg" viewBox="0 0 485.17 364.32"><defs><style>.cls-1{fill:#a9a9a9;}.cls-2{fill:#d3d3d3;}</style></defs><title>mail_1</title><g id="Camada_2" data-name="Camada 2"><g id="Camada_1-2" data-name="Camada 1"><path class="cls-1" d="M485.17,341.28a75.29,75.29,0,0,1-5.35-5.8c-3.71-4.08-7.34-8.23-11-12.34q-8.85-9.93-17.72-19.85c-4.42-4.94-8.87-9.86-13.28-14.81q-9.46-10.59-18.9-21.21-6.39-7.15-12.8-14.28l-19.55-21.91q-6.46-7.23-12.95-14.46-9.63-10.77-19.23-21.56c-4.42-4.94-8.86-9.86-13.29-14.81q-8.19-9.15-16.38-18.3c-.54-.6-.46-.9.13-1.41,4.84-4.18,9.63-8.4,14.44-12.61q9.21-8,18.41-16.08c4.75-4.15,9.49-8.33,14.24-12.48q9.19-8.06,18.41-16.08,7.08-6.2,14.14-12.41L423,74.72l14.06-12.33q9.29-8.13,18.59-16.24L470,33.58q7.11-6.25,14.24-12.49c.3-.26.65-.46,1-.69Z"/><path class="cls-2" d="M20.29,364.32l0-.26a2.69,2.69,0,0,1,1.49-.37H461.92a5.1,5.1,0,0,1,2.81.36l0,.27Z"/><path class="cls-2" d="M462.13,0a.46.46,0,0,1-.26.47,14,14,0,0,1-2.74.17H25.93A14.89,14.89,0,0,1,23.18.47.44.44,0,0,1,22.93,0Z"/><path class="cls-1" d="M464.73,364.05l-1.8,0H22.12l-1.8,0c2.75-3.11,5.5-6.23,8.26-9.33q8.76-9.84,17.55-19.67,5.52-6.17,11-12.32,8.55-9.56,17.07-19.14l10.63-11.88,17.72-19.84c4.26-4.77,8.54-9.52,12.79-14.29q9.7-10.86,19.39-21.73c4.42-4.94,8.87-9.86,13.29-14.81q9.58-10.73,19.14-21.46,7.59-8.49,15.21-17c1.28-1.42,1.34-1.45,2.79-.2,4.17,3.61,8.3,7.26,12.45,10.89l18.41,16.08,14.15,12.41c3.91,3.42,7.82,6.83,11.71,10.27.45.39.72.45,1.19,0,3.14-2.78,6.31-5.53,9.47-8.29l18.76-16.42,16.31-14.3c4.36-3.82,8.73-7.62,13.08-11.45.45-.4.68-.44,1.13.06q10.92,12.27,21.89,24.48,10.08,11.25,20.13,22.52l20.21,22.61,20,22.43,26.27,29.4,20.13,22.52q10.07,11.26,20.12,22.53Q457.7,356.11,464.73,364.05Z"/><path class="cls-1" d="M23.18.47c.36-.4.83-.22,1.25-.22q218.1,0,436.2,0c.41,0,.88-.18,1.24.22q-10.14,8.88-20.28,17.76-11.94,10.44-23.91,20.88c-6.1,5.33-12.18,10.7-18.28,16q-11,9.62-22,19.22c-5.44,4.76-10.86,9.55-16.31,14.31L341,106.25l-14.06,12.32L308.3,134.82q-8.07,7.05-16.13,14.14Q283,157,273.76,165l-14.15,12.41q-8.06,7.06-16.12,14.15a1.2,1.2,0,0,1-1.9,0q-7-6.19-14.05-12.33L209,163l-14.06-12.32L176.3,134.47q-8.16-7.14-16.3-14.3-9.1-8-18.24-15.92l-14.14-12.4q-9.25-8.09-18.5-16.17L95.06,63.36q-9.28-8.13-18.59-16.24-7-6.15-14-12.32L43.83,18.56,29.77,6.23Z"/><path class="cls-1" d="M0,20.38c1.79,1.55,3.47,3,5.14,4.46Q17.43,35.57,29.68,46.3C35.13,51.06,40.55,55.85,46,60.61Q56.06,69.4,66.12,78.19c5.42,4.73,10.81,9.49,16.23,14.22l18.32,16,14.06,12.32L133.32,137l16.13,14.14c3.55,3.11,7.09,6.22,10.67,9.28.68.58.73.91.13,1.58-3,3.28-5.92,6.6-8.87,9.91l-19.47,21.82q-6.34,7.11-12.71,14.2l-17.55,19.67q-6.47,7.23-13,14.46-9.58,10.72-19.15,21.47c-3.59,4-7.2,8-10.79,12.05L41.45,295q-6.3,7.06-12.63,14.11Q19.06,320,9.28,331L0,341.32Z"/></g></g></svg>