<?xml version="1.0" encoding="iso-8859-1"?>
<!-- Generator: Adobe Illustrator 16.0.0, SVG Export Plug-In . SVG Version: 6.00 Build 0)  -->
<!DOCTYPE svg PUBLIC "-//W3C//DTD SVG 1.1//EN" "http://www.w3.org/Graphics/SVG/1.1/DTD/svg11.dtd">
<svg version="1.1" id="Capa_1" xmlns="http://www.w3.org/2000/svg" xmlns:xlink="http://www.w3.org/1999/xlink" x="0px" y="0px"
	 width="782.1px" height="782.1px" viewBox="0 0 782.1 782.1" style="enable-background:new 0 0 782.1 782.1;" xml:space="preserve"
	>
<g>
	<path d="M735.301,65.6H46.9C21,65.6,0,86.6,0,112.5V521.4c0,25.898,21,46.898,46.9,46.898h112.5V618.9
		c0,25.898,21,46.898,46.9,46.898h13.1v3.801c0,25.9,21,46.9,46.9,46.9h249.5c25.898,0,46.898-21,46.898-46.9v-3.801h13.102
		c25.898,0,46.898-21,46.898-46.898v-50.602h112.5c25.9,0,46.9-21,46.9-46.898V112.399C782.199,86.5,761.199,65.6,735.301,65.6z
		 M190.4,231.7h-63.8v-116.4h63.8V231.7z M306.7,231.7h-63.8v-116.4h63.8V231.7z M423,231.7h-63.8v-116.4H423V231.7z M539.301,231.7
		H475.5v-116.4h63.801V231.7z M655.6,231.7h-63.799v-116.4H655.6V231.7z"/>
</g>
<g>
</g>
<g>
</g>
<g>
</g>
<g>
</g>
<g>
</g>
<g>
</g>
<g>
</g>
<g>
</g>
<g>
</g>
<g>
</g>
<g>
</g>
<g>
</g>
<g>
</g>
<g>
</g>
<g>
</g>
</svg>
