<svg xmlns="http://www.w3.org/2000/svg" viewBox="0 0 512.66 512.63"><defs><style>.cls-1{fill:#ababab;}</style></defs><title>youtube</title><g id="Camada_2" data-name="Camada 2"><g id="Camada_1-2" data-name="Camada 1"><path class="cls-1" d="M512.44,60.24c0-6.8-.05-13.8-2.52-20.21-5.64-14.66-15.59-25.7-29.05-33.85C473.41,1.67,465.15,1.3,457,0H55C49.53,1.18,43.68.6,38.47,2.77c-14.29,6-25,15.94-32.78,29.35C1.67,39,1.48,46.61,0,54V458c1.37,5.3.78,11,3,16.09,7.78,18.28,27,38.61,56.78,38.54,130.8-.31,261.61-.1,392.42-.21,6.94,0,14.08-.1,20.66-2.79,19.32-7.92,39.93-27.42,39.84-58C512.28,321.19,512.52,190.71,512.44,60.24ZM301.9,99a94,94,0,0,0,12,0c3.23-.15,4.43,1,4.38,4.32-.15,8.66,0,17.33,0,26v51.5c0,2.33-.13,4.69.84,6.89,1.69,3.79,4.66,5.63,8.78,5.14,3.93-.47,6.31-2.91,7-6.76a31.3,31.3,0,0,0,.2-5.49c0-25.32.1-50.65-.09-76,0-4.36,1.11-6.1,5.6-5.64a52,52,0,0,0,10,0c4.3-.38,5.35,1.5,5.33,5.5-.14,23.16-.07,46.32-.07,69.48,0,10-.14,20,.07,30,.07,3.8-1,5.49-5,5.21-4.65-.31-9.33-.07-14-.07-6.77,0-6.77,0-7.16-7.59-3.35,5.28-6.89,8.7-12.26,9.44-9.29,1.28-15.79-2.94-18.64-12-1.53-4.83-1.78-9.82-1.78-14.82,0-26.67,0-53.33-.09-80C296.86,100.39,297.8,98.68,301.9,99Zm-47.78-4c15.51.87,27.08,12.81,27.82,29.33.42,9.64.07,19.32.07,29,0,11.47,1.12,23-.89,34.4a30.85,30.85,0,0,1-48.36,20.06c-6.85-4.75-9.66-12.08-10.33-19.78-2-22.58-2.74-45.28.45-67.78C225.39,102.46,236.62,94,254.12,95ZM144.9,56c5.5,0,11,.19,16.49-.08,3.47-.17,5,1.08,5.9,4.41,4.06,14.6,8.37,29.12,12.6,43.67.37,1.25.85,2.46,1.63,4.7,4.34-15.17,8.31-29.38,12.47-43.53,3.26-11.06,1-8.87,11.76-9.1,4.16-.1,8.34.19,12.49-.07,4.37-.28,5.07,1,3.43,5-8.49,20.82-16.71,41.75-25.11,62.6a23.91,23.91,0,0,0-1.78,9.22c0,24.66-.12,49.33.09,74,0,4.89-1.51,6.51-6.28,6.12a81.52,81.52,0,0,0-13,0c-4.33.33-5.74-1-5.7-5.56.19-24.66,0-49.32.07-74a23.76,23.76,0,0,0-1.94-9.66c-8.91-20.83-17.7-41.7-26.53-62.56C139.35,56,139.37,56,144.9,56Zm278,347.24C422.8,432.41,399,456,369.45,456c-37.83.11-75.65,0-113.48,0-37.32,0-74.65-.2-112,.07-27.73.2-55.58-21.34-55-55q.91-55.49,0-111c-.52-31.5,24-54.8,54.32-55.17,23-.28,46-.07,69-.07,51.49,0,103-.11,154.47.05,22.69.07,40.13,9.66,50.94,30a47.6,47.6,0,0,1,5.19,22.68C422.89,326.2,423,364.7,422.86,403.19Z"/><path class="cls-1" d="M283.16,313c-.14.09-.3.16-.43.26-2.94,2.37-3.85,1.36-3.82-2.07.12-10.66,0-21.32.17-32,.05-3.22-1-4.51-4.31-4.37a118.86,118.86,0,0,1-13.48,0c-4.27-.32-5.31,1.38-5.28,5.43.17,21.81.08,43.62.08,65.44h0v57.95c0,12.51,0,12.37,12.55,12.48,4.17,0,7.16-.41,7.37-5.48.14-3.17,1.8-2.44,3.56-1a42.1,42.1,0,0,0,11,6.74c9.24,3.56,16.76.76,21.32-8.05A36.46,36.46,0,0,0,316,391.46c.09-20.15.3-40.3,0-60.45C315.66,310.17,301.07,302.31,283.16,313ZM299.1,389.9c0,6.35-4,10.16-10.29,10.13-6,0-9.95-3.84-10-9.93q-.07-29.43,0-58.85c0-6.4,4-10.23,10.25-10.14s10,3.89,10,10.44c0,9.64,0,19.28,0,28.92C299.11,370.28,299.16,380.09,299.1,389.9Z"/><path class="cls-1" d="M236.15,311.78a68.88,68.88,0,0,1-11.49,0c-4.31-.37-5.75,1-5.7,5.54.25,23.65.18,47.32.2,71a30.7,30.7,0,0,1-.15,5c-.65,3.89-4.48,7.16-8.07,6.81-4.39-.43-5.65-3.71-5.93-7.41-.24-3.14,0-6.32,0-9.49,0-22.16-.1-44.32,0-66.48,0-3.62-.94-5.19-4.77-4.93a74.87,74.87,0,0,1-12,0c-4.72-.43-6.31,1.07-6.26,6,.25,23.32.14,46.65.09,70a134.87,134.87,0,0,0,.84,16.45c1.15,9.54,6.05,14.09,15.56,13.8,9.92-.31,17.76-4.95,24.35-12.67,2.56,3.92-1.58,9.46,2.79,11.25,3.59,1.47,8.21.32,12.37.52,3,.15,4.36-1,4-4.07a12.51,12.51,0,0,1,0-1.5c0-31.32-.1-62.65.1-94C242.15,312.86,240.64,311.4,236.15,311.78Z"/><path class="cls-1" d="M379.85,380.29c-1.17,0-2.34.1-3.5,0-3.35-.29-4.92,1-4.7,4.56a42.7,42.7,0,0,1-.28,8.46c-.87,6.19-5.11,9-12.4,8.65-6.24-.34-9.9-3.93-10-10.1-.11-6.83.13-13.66-.09-20.48-.11-3.51,1.15-4.63,4.6-4.57,10.15.17,20.31-.07,30.47.13,3.62.07,5-.93,4.95-4.76,0-11.82-.19-23.64-1-35.43-.51-7.19-3.36-13.11-9.76-17-13.77-8.44-41.74-5.45-46.16,19.69-1.91,10.91-1.66,21.88-1.68,32.85,0,5.5-.14,11,0,16.48.23,7.85.95,15.61,4.53,22.82,6.29,12.67,18.94,19,32.23,16.13,12.53-2.75,21.48-13.88,22.08-27.47C389.57,380.24,389.57,380.24,379.85,380.29Zm-30.63-43.08c0-7.36,4.6-11.88,11.33-11.84s11.05,4.66,11.2,12c.23,11.47.23,11.47-11.58,11.47C347.49,348.53,349.13,351.07,349.22,337.21Z"/><path class="cls-1" d="M186.77,280.27c0-4.62-1.66-5.51-5.83-5.47-18.5.18-37,.05-55.48,0-13.19,0-13.1,0-12.74,13.45.08,3.15,1,4.57,4.3,4.45,4.32-.16,8.67.24,13-.07,4.5-.32,6.05,1.13,6,5.85-.26,18.65-.11,37.32-.11,56,0,19.16.08,38.32-.06,57.48,0,3.79.93,5.55,5,5.22,3.8-.31,7.66-.06,11.49-.06,6.46,0,6.47,0,6.47-6.62,0-37.31.07-74.63-.08-111.95,0-4.27,1-6.16,5.56-5.68a95,95,0,0,0,10,.07C186.83,292.94,186.62,292.94,186.77,280.27Z"/><path class="cls-1" d="M251.71,194.08c6.1.11,10.22-4.65,10.28-12.14.08-9.14,0-18.29,0-27.44h0c0-9.81.09-19.63,0-29.44-.08-6.92-4.61-11.85-10.37-11.69-5.48.16-9.66,5.06-9.69,11.8q-.12,28.44,0,56.88C241.92,189.46,245.74,194,251.71,194.08Z"/></g></g></svg>